<svg width="45" height="46" viewBox="0 0 45 46" fill="none" xmlns="http://www.w3.org/2000/svg">
<rect y="0.0957031" width="45" height="45" rx="22.5" fill="#1C1D1F"/>
<path d="M29.7701 15.9257C28.4401 15.3057 27.0001 14.8557 25.5001 14.5957C25.4737 14.5961 25.4486 14.6069 25.4301 14.6257C25.2501 14.9557 25.0401 15.3857 24.9001 15.7157C23.3091 15.4759 21.6911 15.4759 20.1001 15.7157C19.9601 15.3757 19.7501 14.9557 19.5601 14.6257C19.5501 14.6057 19.5201 14.5957 19.4901 14.5957C17.9901 14.8557 16.5601 15.3057 15.2201 15.9257C15.2101 15.9257 15.2001 15.9357 15.1901 15.9457C12.4701 20.0157 11.7201 23.9757 12.0901 27.8957C12.0901 27.9157 12.1001 27.9357 12.1201 27.9457C13.9201 29.2657 15.6501 30.0657 17.3601 30.5957C17.3901 30.6057 17.4201 30.5957 17.4301 30.5757C17.8301 30.0257 18.1901 29.4457 18.5001 28.8357C18.5201 28.7957 18.5001 28.7557 18.4601 28.7457C17.8901 28.5257 17.3501 28.2657 16.8201 27.9657C16.7801 27.9457 16.7801 27.8857 16.8101 27.8557C16.9201 27.7757 17.0301 27.6857 17.1401 27.6057C17.1601 27.5857 17.1901 27.5857 17.2101 27.5957C20.6501 29.1657 24.3601 29.1657 27.7601 27.5957C27.7801 27.5857 27.8101 27.5857 27.8301 27.6057C27.9401 27.6957 28.0501 27.7757 28.1601 27.8657C28.2001 27.8957 28.2001 27.9557 28.1501 27.9757C27.6301 28.2857 27.0801 28.5357 26.5101 28.7557C26.4701 28.7657 26.4601 28.8157 26.4701 28.8457C26.7901 29.4557 27.1501 30.0357 27.5401 30.5857C27.5701 30.5957 27.6001 30.6057 27.6301 30.5957C29.3501 30.0657 31.0801 29.2657 32.8801 27.9457C32.9001 27.9357 32.9101 27.9157 32.9101 27.8957C33.3501 23.3657 32.1801 19.4357 29.8101 15.9457C29.8001 15.9357 29.7901 15.9257 29.7701 15.9257ZM19.0201 25.5057C17.9901 25.5057 17.1301 24.5557 17.1301 23.3857C17.1301 22.2157 17.9701 21.2657 19.0201 21.2657C20.0801 21.2657 20.9201 22.2257 20.9101 23.3857C20.9101 24.5557 20.0701 25.5057 19.0201 25.5057ZM25.9901 25.5057C24.9601 25.5057 24.1001 24.5557 24.1001 23.3857C24.1001 22.2157 24.9401 21.2657 25.9901 21.2657C27.0501 21.2657 27.8901 22.2257 27.8801 23.3857C27.8801 24.5557 27.0501 25.5057 25.9901 25.5057Z" fill="white"/>
</svg>
