<svg width="60" height="61" viewBox="0 0 60 61" fill="none" xmlns="http://www.w3.org/2000/svg">
<path d="M37.5 17.9995V20.4995H22.5V17.9995H12.5V20.4995H10V40.4995H12.5V42.9995H20V37.9995H22.5V35.4995H25V32.9995H35V35.4995H37.5V37.9995H40V42.9995H47.5V40.4995H50V20.4995H47.5V17.9995H37.5Z" fill="black"/>
<path d="M22.5 35.5H25V38H22.5V35.5Z" fill="#11B55A"/>
<path d="M35 35.5H37.5V38H35V35.5Z" fill="#11B55A"/>
<path d="M12.5 25.5H15V28H12.5V25.5Z" fill="#11B55A"/>
<path d="M22.5 35.5H25V38H22.5V35.5Z" fill="#11B55A"/>
<path d="M10 18H12.5V20.5H10V18Z" fill="#11B55A"/>
<path d="M47.5 18H50V20.5H47.5V18Z" fill="#11B55A"/>
<path d="M35 35.5H37.5V38H35V35.5Z" fill="#11B55A"/>
<path d="M42.5 28H45V30.5H42.5V28Z" fill="#11B55A"/>
<path d="M45 25.5H47.5V28H45V25.5Z" fill="#11B55A"/>
<path d="M47.5 40.5H50V43H47.5V40.5Z" fill="#11B55A"/>
<path d="M10 40.5H12.5V43H10V40.5Z" fill="#11B55A"/>
<path d="M15 23H17.5V25.5H15V23Z" fill="#11B55A"/>
<path d="M17.5 25.5H20V28H17.5V25.5Z" fill="#11B55A"/>
<path d="M15 28H17.5V30.5H15V28Z" fill="#11B55A"/>
<path d="M40 25.5H42.5L42.5 28L40 28V25.5Z" fill="#11B55A"/>
<path d="M42.5 23H45L45 25.5L42.5 25.5L42.5 23Z" fill="#11B55A"/>
<path d="M25 33V35.5H35L35 33H25Z" fill="#11B55A"/>
<path d="M20 43L22.5 43L22.5 38L20 38L20 43Z" fill="#11B55A"/>
<path d="M20 45.5V43L12.5 43V45.5L20 45.5Z" fill="#11B55A"/>
<path d="M10 20.5H7.5V40.5H10V20.5Z" fill="#11B55A"/>
<path d="M12.5 15.5V18H22.5V15.5H12.5Z" fill="#11B55A"/>
<path d="M37.5 20.5V18H22.5V20.5H37.5Z" fill="#11B55A"/>
<path d="M47.5 18V15.5H37.5V18H47.5Z" fill="#11B55A"/>
<path d="M52.5 20.5H50V40.5H52.5V20.5Z" fill="#11B55A"/>
<path d="M40 43L40 45.5L47.5 45.5V43L40 43Z" fill="#11B55A"/>
<path d="M37.5 43H40V38L37.5 38L37.5 43Z" fill="#11B55A"/>
</svg>
