<svg width="45" height="46" viewBox="0 0 45 46" fill="none" xmlns="http://www.w3.org/2000/svg">
<rect y="0.0957031" width="45" height="45" rx="22.5" fill="#1C1D1F"/>
<path d="M22.501 12.5957C16.976 12.5957 12.501 17.0707 12.501 22.5957C12.4992 24.695 13.1587 26.7415 14.386 28.4447C15.6133 30.1479 17.346 31.4211 19.338 32.0837C19.838 32.1707 20.026 31.8707 20.026 31.6077C20.026 31.3707 20.013 30.5837 20.013 29.7457C17.501 30.2087 16.851 29.1337 16.651 28.5707C16.538 28.2827 16.051 27.3957 15.626 27.1577C15.276 26.9707 14.776 26.5077 15.613 26.4957C16.401 26.4827 16.963 27.2207 17.151 27.5207C18.051 29.0327 19.488 28.6077 20.063 28.3457C20.151 27.6957 20.413 27.2587 20.701 27.0087C18.476 26.7587 16.151 25.8957 16.151 22.0707C16.151 20.9827 16.538 20.0837 17.176 19.3837C17.076 19.1337 16.726 18.1087 17.276 16.7337C17.276 16.7337 18.113 16.4707 20.026 17.7577C20.8401 17.5323 21.6812 17.419 22.526 17.4207C23.376 17.4207 24.226 17.5327 25.026 17.7577C26.939 16.4577 27.776 16.7337 27.776 16.7337C28.326 18.1087 27.976 19.1337 27.876 19.3837C28.513 20.0837 28.901 20.9707 28.901 22.0707C28.901 25.9087 26.564 26.7587 24.339 27.0087C24.701 27.3207 25.014 27.9207 25.014 28.8587C25.014 30.1957 25.001 31.2707 25.001 31.6087C25.001 31.8707 25.189 32.1827 25.689 32.0827C27.6735 31.4118 29.3978 30.1358 30.6195 28.4341C31.8412 26.7324 32.4989 24.6906 32.5 22.5957C32.5 17.0707 28.025 12.5957 22.5 12.5957" fill="white"/>
</svg>
