<svg width="50" height="50" viewBox="0 0 50 50" fill="none" xmlns="http://www.w3.org/2000/svg">
<path d="M20.8335 12.5003H22.9168V14.5837H20.8335V12.5003Z" fill="black"/>
<path d="M29.1668 12.5003H27.0835V14.5837H29.1668V12.5003Z" fill="black"/>
<path d="M12.5002 12.5003H14.5835V14.5837H12.5002V12.5003Z" fill="black"/>
<path d="M37.5002 12.5003H35.4168V14.5837H37.5002V12.5003Z" fill="black"/>
<path d="M10.4168 14.5837H12.5002V16.667H10.4168V14.5837Z" fill="black"/>
<path d="M39.5835 14.5837H37.5002V16.667H39.5835V14.5837Z" fill="black"/>
<path d="M10.4168 25.0003H12.5002V27.0837H10.4168V25.0003Z" fill="black"/>
<path d="M39.5835 25.0003H37.5002V27.0837H39.5835V25.0003Z" fill="black"/>
<path d="M18.7502 33.3337H20.8335V35.417H18.7502V33.3337Z" fill="black"/>
<path d="M31.2502 33.3337H29.1668V35.417H31.2502V33.3337Z" fill="black"/>
<path d="M20.8335 35.417H22.9168V37.5003H20.8335V35.417Z" fill="black"/>
<path d="M29.1668 35.417H27.0835V37.5003H29.1668V35.417Z" fill="black"/>
<path d="M16.6668 31.2503H18.7502V33.3337H16.6668V31.2503Z" fill="black"/>
<path d="M33.3335 31.2503H31.2502V33.3337H33.3335V31.2503Z" fill="black"/>
<path d="M14.5835 29.167H16.6668V31.2503H14.5835V29.167Z" fill="black"/>
<path d="M35.4168 29.167H33.3335V31.2503H35.4168V29.167Z" fill="black"/>
<path d="M12.5002 27.0837H14.5835V29.167H12.5002V27.0837Z" fill="black"/>
<path d="M37.5002 27.0837H35.4168V29.167H37.5002V27.0837Z" fill="black"/>
<path d="M14.5835 10.417V12.5003H20.8335V10.417H14.5835Z" fill="black"/>
<path d="M35.4168 12.5003V10.417H29.1668V12.5003H35.4168Z" fill="black"/>
<path d="M39.5835 25.0003H41.6668V16.667H39.5835V25.0003Z" fill="black"/>
<path d="M8.3335 25.0003H10.4168V16.667H8.3335V25.0003Z" fill="black"/>
<path d="M22.9168 37.5003V39.5836H27.0835V37.5003H22.9168Z" fill="black"/>
<path d="M22.9168 14.5837V16.667H27.0835V14.5837H22.9168Z" fill="black"/>
<path d="M27.0832 37.5H22.9165V35.4167H20.8332V33.3333H18.7498V31.25H16.6665V29.1667H14.5832V27.0833H12.4998V25H10.4165V16.6667H12.4998V14.5833H14.5832V12.5H20.8332V14.5833H22.9165V16.6667H27.0832V14.5833H29.1665V12.5H35.4165V14.5833H37.4998V16.6667H39.5832V25H37.4998V27.0833H35.4165V29.1667H33.3332V31.25H31.2498V33.3333H29.1665V35.4167H27.0832V37.5Z" fill="#FF394A"/>
</svg>
