<svg width="45" height="46" viewBox="0 0 45 46" fill="none" xmlns="http://www.w3.org/2000/svg">
<rect y="0.0957031" width="45" height="45" rx="22.5" fill="#1C1D1F"/>
<path d="M25.5 14.0957H19.5C16.4624 14.0957 14 16.5581 14 19.5957V25.5957C14 28.6333 16.4624 31.0957 19.5 31.0957H25.5C28.5376 31.0957 31 28.6333 31 25.5957V19.5957C31 16.5581 28.5376 14.0957 25.5 14.0957Z" stroke="white" stroke-width="1.5" stroke-linecap="round" stroke-linejoin="round"/>
<path d="M22.4996 26.2022C24.4911 26.2022 26.1056 24.5878 26.1056 22.5962C26.1056 20.6047 24.4911 18.9902 22.4996 18.9902C20.508 18.9902 18.8936 20.6047 18.8936 22.5962C18.8936 24.5878 20.508 26.2022 22.4996 26.2022Z" stroke="white" stroke-width="1.5" stroke-linecap="round" stroke-linejoin="round"/>
<path d="M27.3943 18.7338C27.9631 18.7338 28.4243 18.2727 28.4243 17.7038C28.4243 17.135 27.9631 16.6738 27.3943 16.6738C26.8254 16.6738 26.3643 17.135 26.3643 17.7038C26.3643 18.2727 26.8254 18.7338 27.3943 18.7338Z" fill="white"/>
</svg>
