<svg width="68" height="58" viewBox="0 0 68 58" fill="none" xmlns="http://www.w3.org/2000/svg">
<path d="M38.6667 58H29V53.1667H24.1667V48.3333H19.3333V43.5H14.5V38.6667H9.66667V33.8333H4.83333V29H0V9.66667H4.83333V4.83333H9.66667V0H24.1667V4.83333H29V9.66667H38.6667V4.83333H43.5V0H58V4.83333H62.8333V9.66667H67.6667V29H62.8333V33.8333H58V38.6667H53.1667V43.5H48.3333V48.3333H43.5V53.1667H38.6667V58Z" fill="#FF394A"/>
<path d="M35.25 43.583V44.667H32.083V43.583H35.25ZM37.333 41.5V42.583H36.25V41.5H37.333ZM31.083 41.5V42.583H30V41.5H31.083ZM39.417 39.417V40.5H38.333V39.417H39.417ZM29 39.417V40.5H27.917V39.417H29ZM41.5 37.333V38.417H40.417V37.333H41.5ZM26.917 37.333V38.417H25.833V37.333H26.917ZM43.583 35.25V36.333H42.5V35.25H43.583ZM24.833 35.25V36.333H23.75V35.25H24.833ZM45.667 33.167V34.25H44.583V33.167H45.667ZM22.75 33.167V34.25H21.667V33.167H22.75ZM47.75 31.083V32.167H46.667V31.083H47.75ZM20.667 31.083V32.167H19.583V31.083H20.667ZM49.833 22.75V30.083H48.75V22.75H49.833ZM18.583 22.75V30.083H17.5V22.75H18.583ZM47.75 20.667V21.75H46.667V20.667H47.75ZM35.25 20.667V21.75H32.083V20.667H35.25ZM20.667 20.667V21.75H19.583V20.667H20.667ZM45.667 18.583V19.667H44.583V18.583H45.667ZM37.333 18.583V19.667H36.25V18.583H37.333ZM31.083 18.583V19.667H30V18.583H31.083ZM22.75 18.583V19.667H21.667V18.583H22.75ZM43.583 16.5V17.583H38.333V16.5H43.583ZM29 16.5V17.583H23.75V16.5H29Z" fill="black" stroke="black"/>
</svg>
