<svg width="1440" height="146" viewBox="0 0 1440 146" fill="none" xmlns="http://www.w3.org/2000/svg">
<rect x="-23" y="21.186" width="41.4562" height="124.369" fill="#6D6D6D"/>
<rect x="80.8477" y="21.186" width="41.4562" height="124.369" fill="#6D6D6D"/>
<rect x="122.304" y="79.2251" width="29.0194" height="145.304" transform="rotate(90 122.304 79.2251)" fill="#6D6D6D"/>
<rect x="101.576" y="0.458008" width="41.4562" height="103.848" transform="rotate(90 101.576 0.458008)" fill="#6D6D6D"/>
<rect x="147.178" y="0.458008" width="41.4562" height="78.145" fill="#6D6D6D"/>
<rect width="62.1843" height="41.4562" transform="matrix(-4.37114e-08 -1 -1 4.37114e-08 271.754 121.096)" fill="#6D6D6D"/>
<rect width="62.1843" height="41.4562" transform="matrix(-4.37114e-08 -1 -1 4.37114e-08 209.362 121.096)" fill="#6D6D6D"/>
<rect width="41.4562" height="41.4562" transform="matrix(-4.37114e-08 -1 -1 4.37114e-08 240.662 145.555)" fill="#6D6D6D"/>
<rect width="78.145" height="41.4562" transform="matrix(-4.37114e-08 -1 -1 4.37114e-08 292.482 78.603)" fill="#6D6D6D"/>
<rect x="317.356" y="21.186" width="41.4562" height="124.369" fill="#6D6D6D"/>
<rect x="421.204" y="21.186" width="41.4562" height="124.369" fill="#6D6D6D"/>
<rect x="462.66" y="79.2251" width="29.0194" height="145.304" transform="rotate(90 462.66 79.2251)" fill="#6D6D6D"/>
<rect x="441.932" y="0.458008" width="41.4562" height="103.848" transform="rotate(90 441.932 0.458008)" fill="#6D6D6D"/>
<rect x="487.534" y="0.458008" width="41.4562" height="124.369" fill="#6D6D6D"/>
<rect x="612.109" y="104.099" width="41.4562" height="103.848" transform="rotate(90 612.109 104.099)" fill="#6D6D6D"/>
<rect x="636.983" y="21.186" width="41.4562" height="124.369" fill="#6D6D6D"/>
<rect x="740.831" y="21.186" width="41.4562" height="124.369" fill="#6D6D6D"/>
<rect x="782.287" y="79.2251" width="29.0194" height="145.304" transform="rotate(90 782.287 79.2251)" fill="#6D6D6D"/>
<rect x="761.559" y="0.458008" width="41.4562" height="103.848" transform="rotate(90 761.559 0.458008)" fill="#6D6D6D"/>
<rect x="807.161" y="0.458008" width="41.4562" height="145.097" fill="#6D6D6D"/>
<rect x="911.01" y="0.458008" width="41.4562" height="145.097" fill="#6D6D6D"/>
<rect width="41.4562" height="20.7281" transform="matrix(-4.37114e-08 -1 -1 4.37114e-08 869.346 63.6787)" fill="#6D6D6D"/>
<rect width="41.4562" height="41.4562" transform="matrix(-4.37114e-08 -1 -1 4.37114e-08 900.646 88.1382)" fill="#6D6D6D"/>
<rect width="41.4562" height="41.4562" transform="matrix(-4.37114e-08 -1 -1 4.37114e-08 931.738 114.463)" fill="#6D6D6D"/>
<rect width="41.4562" height="41.4562" transform="matrix(-4.37114e-08 -1 -1 4.37114e-08 952.466 41.9146)" fill="#6D6D6D"/>
<rect x="977.34" y="21.186" width="41.4562" height="103.641" fill="#6D6D6D"/>
<rect x="1122.64" y="95.8071" width="29.0194" height="20.7281" transform="rotate(90 1122.64 95.8071)" fill="#6D6D6D"/>
<rect x="1122.64" y="21.186" width="29.0194" height="20.7281" transform="rotate(90 1122.64 21.186)" fill="#6D6D6D"/>
<rect x="1101.92" y="0.458008" width="41.4562" height="103.848" transform="rotate(90 1101.92 0.458008)" fill="#6D6D6D"/>
<rect x="1101.92" y="104.099" width="41.4562" height="103.848" transform="rotate(90 1101.92 104.099)" fill="#6D6D6D"/>
<rect x="1147.52" y="0.458008" width="41.4562" height="145.097" fill="#6D6D6D"/>
<rect x="1251.37" y="0.458008" width="41.4562" height="145.097" fill="#6D6D6D"/>
<rect x="1292.82" y="73.4209" width="29.0194" height="145.304" transform="rotate(90 1292.82 73.4209)" fill="#6D6D6D"/>
<rect x="1317.7" y="21.186" width="41.4562" height="124.369" fill="#6D6D6D"/>
<rect x="1442.27" y="58.9111" width="29.0194" height="124.576" transform="rotate(90 1442.27 58.9111)" fill="#6D6D6D"/>
<rect x="1463" y="0.458008" width="41.4562" height="124.576" transform="rotate(90 1463 0.458008)" fill="#6D6D6D"/>
<rect x="1463" y="104.099" width="41.4562" height="124.576" transform="rotate(90 1463 104.099)" fill="#6D6D6D"/>
</svg>
