<svg width="45" height="44" viewBox="0 0 45 44" fill="none" xmlns="http://www.w3.org/2000/svg">
<rect x="0.946533" width="43.32" height="43.32" rx="21.66" fill="#1C1D1F"/>
<g clip-path="url(#clip0_2223_917)">
<path d="M32.6978 26.4372C32.2879 26.9548 31.284 27.3238 31.284 27.3238L23.8174 30.0094V28.0283L29.3125 26.0673C29.936 25.8442 30.0313 25.5277 29.5251 25.3618C29.0189 25.1959 28.1027 25.2426 27.4783 25.4676L23.8174 26.7585V24.704L24.0281 24.6315C24.0281 24.6315 25.0863 24.2569 26.5735 24.0919C28.0617 23.928 29.8835 24.1148 31.3136 24.6573C32.9247 25.1673 33.1059 25.9195 32.6978 26.4372ZM24.5277 23.0642V18.001C24.5277 17.4061 24.418 16.8589 23.8603 16.7045C23.4342 16.5672 23.1691 16.9638 23.1691 17.5577V30.2401L19.7533 29.1542V14.0332C21.2052 14.303 23.3217 14.9417 24.459 15.325C27.3524 16.3193 28.3334 17.5577 28.3334 20.3463C28.3334 23.0642 26.6574 24.0948 24.5277 23.0652M13.4851 27.8224C11.8301 27.3552 11.5545 26.3828 12.3086 25.8232C13.0055 25.3065 14.1915 24.9175 14.1915 24.9175L19.0898 23.1729V25.1616L15.5643 26.4248C14.9418 26.6479 14.8464 26.9644 15.3517 27.1303C15.8589 27.2971 16.7751 27.2494 17.3985 27.0254L19.0898 26.4114V28.1894L18.7523 28.2466C17.0611 28.5231 15.2602 28.4077 13.4851 27.8224Z" fill="white"/>
</g>
<defs>
<clipPath id="clip0_2223_917">
<rect width="22.8803" height="22.8803" fill="white" transform="translate(11.1665 10.2197)"/>
</clipPath>
</defs>
</svg>
