<svg width="45" height="46" viewBox="0 0 45 46" fill="none" xmlns="http://www.w3.org/2000/svg">
<rect y="0.0957031" width="45" height="45" rx="22.5" fill="#1C1D1F"/>
<path d="M21.2499 23.6357C21.2499 23.0657 20.7799 22.5957 20.2099 22.5957C19.6399 22.5957 19.1699 23.0657 19.1699 23.6357C19.1699 23.9115 19.2795 24.1761 19.4745 24.3711C19.6696 24.5661 19.9341 24.6757 20.2099 24.6757C20.4857 24.6757 20.7503 24.5661 20.9453 24.3711C21.1404 24.1761 21.2499 23.9115 21.2499 23.6357ZM24.5899 26.0057C24.1399 26.4557 23.1799 26.6157 22.4999 26.6157C21.8199 26.6157 20.8599 26.4557 20.4099 26.0057C20.3856 25.9797 20.3562 25.9589 20.3235 25.9447C20.2908 25.9305 20.2556 25.9232 20.2199 25.9232C20.1843 25.9232 20.149 25.9305 20.1163 25.9447C20.0837 25.9589 20.0542 25.9797 20.0299 26.0057C20.0039 26.03 19.9831 26.0594 19.9689 26.0921C19.9547 26.1248 19.9474 26.1601 19.9474 26.1957C19.9474 26.2313 19.9547 26.2666 19.9689 26.2993C19.9831 26.332 20.0039 26.3614 20.0299 26.3857C20.7399 27.0957 22.0999 27.1557 22.4999 27.1557C22.8999 27.1557 24.2599 27.0957 24.9699 26.3857C24.996 26.3614 25.0167 26.332 25.0309 26.2993C25.0451 26.2666 25.0524 26.2313 25.0524 26.1957C25.0524 26.1601 25.0451 26.1248 25.0309 26.0921C25.0167 26.0594 24.996 26.03 24.9699 26.0057C24.8699 25.9057 24.6999 25.9057 24.5899 26.0057ZM24.7899 22.5957C24.2199 22.5957 23.7499 23.0657 23.7499 23.6357C23.7499 24.2057 24.2199 24.6757 24.7899 24.6757C25.3599 24.6757 25.8299 24.2057 25.8299 23.6357C25.8299 23.0657 25.3699 22.5957 24.7899 22.5957Z" fill="white"/>
<path d="M22.5 12.5957C16.98 12.5957 12.5 17.0757 12.5 22.5957C12.5 28.1157 16.98 32.5957 22.5 32.5957C28.02 32.5957 32.5 28.1157 32.5 22.5957C32.5 17.0757 28.02 12.5957 22.5 12.5957ZM28.3 23.9257C28.32 24.0657 28.33 24.2157 28.33 24.3657C28.33 26.6057 25.72 28.4257 22.5 28.4257C19.28 28.4257 16.67 26.6057 16.67 24.3657C16.67 24.2157 16.68 24.0657 16.7 23.9257C16.19 23.6957 15.84 23.1857 15.84 22.5957C15.8385 22.3089 15.9218 22.0281 16.0794 21.7886C16.237 21.549 16.4619 21.3613 16.7258 21.2491C16.9897 21.137 17.2808 21.1053 17.5627 21.158C17.8446 21.2108 18.1045 21.3457 18.31 21.5457C19.32 20.8157 20.72 20.3557 22.27 20.3057L23.01 16.8157C23.02 16.7457 23.06 16.6857 23.12 16.6557C23.18 16.6157 23.25 16.6057 23.32 16.6157L25.74 17.1357C25.8221 16.9693 25.9472 16.8279 26.1023 16.7261C26.2575 16.6243 26.4371 16.5659 26.6224 16.5569C26.8077 16.5479 26.9921 16.5887 27.1564 16.675C27.3207 16.7613 27.4589 16.89 27.5566 17.0477C27.6544 17.2054 27.7082 17.3864 27.7125 17.5719C27.7167 17.7574 27.6712 17.9407 27.5808 18.1027C27.4903 18.2647 27.3582 18.3996 27.198 18.4933C27.0379 18.587 26.8556 18.6362 26.67 18.6357C26.11 18.6357 25.66 18.1957 25.63 17.6457L23.46 17.1857L22.8 20.3057C24.33 20.3557 25.7 20.8257 26.7 21.5457C26.8533 21.3993 27.0367 21.2882 27.2375 21.2201C27.4382 21.152 27.6514 21.1286 27.8621 21.1515C28.0728 21.1744 28.276 21.2431 28.4574 21.3527C28.6388 21.4624 28.7941 21.6103 28.9123 21.7862C29.0306 21.9621 29.109 22.1618 29.142 22.3711C29.1751 22.5805 29.162 22.7946 29.1037 22.9984C29.0454 23.2021 28.9432 23.3907 28.8044 23.5509C28.6656 23.7111 28.4934 23.839 28.3 23.9257Z" fill="white"/>
</svg>
