<svg width="60" height="61" viewBox="0 0 60 61" fill="none" xmlns="http://www.w3.org/2000/svg">
<path fill-rule="evenodd" clip-rule="evenodd" d="M27.5 13H32.5V15.5H35V18H37.5V38H22.5V18H25V15.5H27.5V13ZM27.5 28V25.5H32.5V28H27.5ZM32.5 20.5H35V25.5H32.5V20.5ZM32.5 20.5V18H27.5V20.5H25V25.5H27.5V20.5H32.5Z" fill="black"/>
<path d="M20 40.5H17.5V43H15V35.5H17.5V33H20V40.5Z" fill="black"/>
<path d="M45 35.5H42.5V33H40V40.5H42.5V43H45V35.5Z" fill="black"/>
<path d="M25 40.5H35V45.5H32.5V48H27.5V45.5H25V40.5Z" fill="black"/>
<path d="M32.5 10.5V13H27.5V10.5H32.5Z" fill="#F1E228"/>
<path d="M25 15.5V13H27.5V15.5H25Z" fill="#F1E228"/>
<path d="M22.5 18V15.5H25V18H22.5Z" fill="#F1E228"/>
<path fill-rule="evenodd" clip-rule="evenodd" d="M37.5 18V38H22.5V18H20V30.5H17.5V33H15V35.5H12.5V43H15V45.5H17.5V43H20V40.5H22.5V45.5H25V48H27.5V50.5H32.5V48H35V45.5H37.5V40.5H40V43H42.5V45.5H45V43H47.5V35.5H45V33H42.5V30.5H40V18H37.5ZM42.5 33V35.5H45V43H42.5V40.5H40V33H42.5ZM35 45.5H32.5V48H27.5V45.5H25V40.5H35V45.5ZM20 40.5H17.5V43H15V35.5H17.5V33H20V40.5Z" fill="#F1E228"/>
<path d="M35 15.5H37.5V18H35V15.5Z" fill="#F1E228"/>
<path d="M35 15.5V13H32.5V15.5H35Z" fill="#F1E228"/>
<path d="M27.5 20.5V25.5H25V20.5H27.5Z" fill="#F1E228"/>
<path d="M32.5 20.5H27.5V18H32.5V20.5Z" fill="#F1E228"/>
<path d="M32.5 25.5V20.5H35V25.5H32.5Z" fill="#F1E228"/>
<path d="M32.5 25.5H27.5V28H32.5V25.5Z" fill="#F1E228"/>
</svg>
