<svg width="60" height="61" viewBox="0 0 60 61" fill="none" xmlns="http://www.w3.org/2000/svg">
<path d="M45 38.834V43.834H22.5V41.334H20V16.334H17.5V21.334H15V13.834H37.5V16.334H40V36.334H25V38.834H45Z" fill="black"/>
<path d="M40.0005 13.8335L37.5005 13.8335L37.5005 16.3335L40.0005 16.3335V13.8335Z" fill="#2996F3"/>
<path d="M20.0005 41.3335L22.5005 41.3335V43.8335L20.0005 43.8335V41.3335Z" fill="#2996F3"/>
<path d="M37.5005 13.8335V11.3335L15.0005 11.3335V13.8335L37.5005 13.8335Z" fill="#2996F3"/>
<path d="M15.0005 13.8335L12.5005 13.8335L12.5005 21.3335L15.0005 21.3335L15.0005 13.8335Z" fill="#2996F3"/>
<path d="M20.0005 16.3335L17.5005 16.3335L17.5005 21.3335L15.0005 21.3335L15.0005 23.8335H17.5005L17.5005 41.3335H20.0005L20.0005 16.3335Z" fill="#2996F3"/>
<path d="M35.0005 23.8335V21.3335H25.0005V23.8335L35.0005 23.8335Z" fill="#2996F3"/>
<path d="M30.0005 31.3335V28.8335H25.0005V31.3335L30.0005 31.3335Z" fill="#2996F3"/>
<path d="M25.0005 36.3335L25.0005 38.8335H45.0005V36.3335H42.5005L42.5005 16.3335L40.0005 16.3335L40.0005 36.3335L25.0005 36.3335Z" fill="#2996F3"/>
<path d="M47.5005 38.8335H45.0005V43.8335L47.5005 43.8335V38.8335Z" fill="#2996F3"/>
<path d="M22.5005 43.8335V46.3335L45.0005 46.3335V43.8335H22.5005Z" fill="#2996F3"/>
</svg>
