<svg width="38" height="38" viewBox="0 0 38 38" fill="none" xmlns="http://www.w3.org/2000/svg">
<path d="M17.4134 1.82695C17.7375 0.236612 20.01 0.236607 20.3341 1.82694L21.6335 8.20314C21.8556 9.29316 23.1504 9.76442 24.0212 9.0722L29.1151 5.02297C30.3856 4.01302 32.1264 5.47375 31.3525 6.90033L28.2493 12.62C27.7188 13.5978 28.4077 14.7911 29.5198 14.8205L36.0247 14.993C37.6472 15.036 38.0418 17.2739 36.5319 17.8692L30.4782 20.2561C29.4433 20.6641 29.2041 22.0211 30.037 22.7584L34.9092 27.0718C36.1245 28.1477 34.9882 30.1157 33.4489 29.6012L27.2773 27.5384C26.2222 27.1857 25.1667 28.0714 25.3308 29.1717L26.2906 35.6078C26.53 37.213 24.3945 37.9903 23.546 36.6067L20.1443 31.0594C19.5627 30.1111 18.1848 30.1111 17.6033 31.0594L14.2015 36.6067C13.353 37.9903 11.2176 37.213 11.457 35.6078L12.4167 29.1717C12.5808 28.0714 11.5253 27.1857 10.4703 27.5384L4.29863 29.6012C2.75932 30.1157 1.62307 28.1477 2.83829 27.0718L7.71056 22.7584C8.54348 22.0211 8.30422 20.6641 7.26932 20.2561L1.21564 17.8692C-0.294263 17.2739 0.100346 15.036 1.7228 14.993L8.22776 14.8205C9.33979 14.7911 10.0287 13.5978 9.49824 12.62L6.39508 6.90034C5.62109 5.47375 7.36192 4.01302 8.63243 5.02297L13.7263 9.0722C14.5972 9.76442 15.8919 9.29316 16.1141 8.20314L17.4134 1.82695Z" fill="#FF394A"/>
</svg>
