<svg width="45" height="44" viewBox="0 0 45 44" fill="none" xmlns="http://www.w3.org/2000/svg">
<rect x="0.733154" width="43.32" height="43.32" rx="21.66" fill="#1C1D1F"/>
<g clip-path="url(#clip0_2223_960)">
<path d="M22.4397 10.1523C16.4194 10.1523 11.4876 14.7825 11.0193 20.6661L17.1616 23.1992C17.6979 22.8322 18.3349 22.636 18.9872 22.6369C19.0481 22.6369 19.1083 22.6385 19.1677 22.6418L21.8996 18.6921V18.6368C21.8996 16.2601 23.8381 14.3261 26.2212 14.3261C28.6041 14.3261 30.5427 16.2601 30.5427 18.6368C30.5427 21.0134 28.6041 22.9482 26.2212 22.9482C26.1881 22.9482 26.1559 22.9474 26.123 22.9466L22.2269 25.7184C22.2294 25.7699 22.231 25.8212 22.231 25.8717C22.231 27.6566 20.7757 29.1082 18.9872 29.1082C17.4172 29.1082 16.1036 27.99 15.8068 26.5099L11.4134 24.698C12.774 29.4961 17.1937 33.0137 22.4397 33.0137C28.7691 33.0137 33.8996 27.8954 33.8996 21.583C33.8996 15.2699 28.7691 10.1523 22.4397 10.1523ZM18.2008 27.4965L16.7933 26.9163C17.0423 27.4346 17.4744 27.8681 18.0475 28.1062C19.286 28.6212 20.7141 28.0353 21.2303 26.7989C21.4802 26.2043 21.4817 25.5362 21.2344 24.9406C20.987 24.3408 20.5195 23.8729 19.9201 23.6235C19.3239 23.3766 18.6857 23.3855 18.125 23.5967L19.5796 24.1965C20.4932 24.5764 20.9252 25.6228 20.5443 26.534C20.1642 27.4452 19.1144 27.8763 18.2008 27.4965ZM29.1009 18.6368C29.1009 17.0533 27.8088 15.7639 26.2214 15.7639C24.6333 15.7639 23.3412 17.0533 23.3412 18.6368C23.3412 20.2203 24.6333 21.5089 26.2214 21.5089C27.8088 21.5089 29.1009 20.2204 29.1009 18.6368ZM24.0627 18.6319C24.0627 17.4404 25.0316 16.4746 26.2256 16.4746C27.4204 16.4746 28.3893 17.4404 28.3893 18.6319C28.3893 19.8235 27.4204 20.7893 26.2256 20.7893C25.0316 20.7893 24.0627 19.8235 24.0627 18.632" fill="white"/>
</g>
<defs>
<clipPath id="clip0_2223_960">
<rect width="22.7478" height="23.0143" fill="white" transform="translate(11.0193 10.1523)"/>
</clipPath>
</defs>
</svg>
