<svg width="44" height="44" viewBox="0 0 44 44" fill="none" xmlns="http://www.w3.org/2000/svg">
<rect x="0.679932" width="43.32" height="43.32" rx="21.66" fill="#1C1D1F"/>
<path d="M20.4713 29.6685H17.6875C16.8009 29.6685 15.9524 29.2872 15.3232 28.677C14.7131 28.0478 14.3317 27.1993 14.3317 26.3127V17.0081C14.3317 16.1215 14.7131 15.273 15.3232 14.6438C15.9524 14.0336 16.8009 13.6714 17.6875 13.6714H20.4713V29.6685ZM17.6875 12.127C16.393 12.127 15.1514 12.6412 14.236 13.5566C13.3207 14.472 12.8064 15.7135 12.8064 17.0081V26.3127C12.8064 29.0107 14.9896 31.1939 17.6875 31.1939H22.0062V12.127H17.6875ZM15.7713 17.847C15.7713 18.8385 16.5721 19.6393 17.5731 19.6393C18.5551 19.6393 19.3559 18.8385 19.3559 17.847C19.3559 16.8555 18.5551 16.0547 17.5731 16.0547C16.5721 16.0547 15.7713 16.8555 15.7713 17.847ZM27.6881 20.7071C28.7463 20.7071 29.6043 21.5555 29.6043 22.6137C29.6043 23.6815 28.7463 24.5204 27.6881 24.5204C26.6299 24.5204 25.7528 23.6815 25.7528 22.6137C25.7528 21.5555 26.6299 20.7071 27.6881 20.7071ZM26.9922 31.1939C28.2867 31.1939 29.5283 30.6796 30.4437 29.7642C31.359 28.8488 31.8733 27.6073 31.8733 26.3127V17.0081C31.8733 14.3101 29.6901 12.127 26.9922 12.127H23.9129V31.1939H26.9922Z" fill="white"/>
</svg>
