<svg width="663" height="633" viewBox="0 0 663 633" fill="none" xmlns="http://www.w3.org/2000/svg">
<path d="M20 633H643C654.046 633 663 624.046 663 613V65.472C663 54.4263 654.046 45.472 643 45.472H327.99C320.112 45.472 312.967 40.8467 309.743 33.6585L299.942 11.8135C296.718 4.62529 289.573 0 281.695 0H20C8.95428 0 0 8.95431 0 20V613C0 624.046 8.95428 633 20 633Z" fill="#F6F6F6"/>
<rect y="119" width="663" height="514" rx="15" fill="#D9D9D9"/>
</svg>
<svg width="663" height="633" viewBox="0 0 663 633" fill="none" xmlns="http://www.w3.org/2000/svg">
<path d="M20 633H643C654.046 633 663 624.046 663 613V65.472C663 54.4263 654.046 45.472 643 45.472H327.99C320.112 45.472 312.967 40.8467 309.743 33.6585L299.942 11.8135C296.718 4.62529 289.573 0 281.695 0H20C8.95428 0 0 8.95431 0 20V613C0 624.046 8.95428 633 20 633Z" fill="#F6F6F6"/>
<rect y="119" width="663" height="514" rx="15" fill="#D9D9D9"/>
</svg>
