<svg width="45" height="46" viewBox="0 0 45 46" fill="none" xmlns="http://www.w3.org/2000/svg">
<rect y="0.0957031" width="45" height="45" rx="22.5" fill="#1C1D1F"/>
<path d="M23.5809 21.3077L18.7949 14.5977C18.7394 14.5197 18.666 14.4562 18.581 14.4124C18.4959 14.3685 18.4016 14.3457 18.3059 14.3457H15.7799C15.6698 14.3458 15.5619 14.3763 15.4679 14.4337C15.3739 14.4911 15.2976 14.5732 15.2472 14.6711C15.1968 14.769 15.1743 14.8789 15.1822 14.9887C15.1901 15.0985 15.228 15.204 15.2919 15.2937L21.4189 23.8837M23.5809 21.3077L29.7079 29.8977C29.7718 29.9874 29.8097 30.0929 29.8176 30.2027C29.8255 30.3126 29.803 30.4224 29.7526 30.5203C29.7022 30.6182 29.6258 30.7003 29.5319 30.7577C29.4379 30.8151 29.33 30.8456 29.2199 30.8457H26.6939C26.5982 30.8457 26.5039 30.8229 26.4188 30.779C26.3337 30.7352 26.2604 30.6717 26.2049 30.5937L21.4189 23.8837M23.5809 21.3077L29.4229 14.3457M21.4189 23.8837L15.5769 30.8457" stroke="white" stroke-width="1.5" stroke-linecap="round" stroke-linejoin="round"/>
</svg>
