<svg width="45" height="44" viewBox="0 0 45 44" fill="none" xmlns="http://www.w3.org/2000/svg">
<rect x="0.839844" width="43.32" height="43.32" rx="21.66" fill="#1C1D1F"/>
<path d="M16.227 28.8372C17.9621 30.359 20.1921 31.1968 22.5 31.1939C24.8094 31.197 27.041 30.3593 28.7778 28.8372C30.2688 27.3176 25.3486 21.9178 22.5 19.7661C19.6543 21.9178 14.7303 27.3176 16.2251 28.8372M25.0912 17.3923C27.077 19.7442 31.0363 25.5853 29.918 27.6503C31.2902 25.9566 32.0372 23.8421 32.0335 21.6623C32.0351 20.4002 31.7851 19.1505 31.2981 17.9862C30.8112 16.8218 30.0969 15.7663 29.1973 14.8812C29.1973 14.8812 29.1753 14.864 29.1324 14.8478C29.0607 14.8231 28.9852 14.8109 28.9094 14.8116C28.4384 14.8116 27.3316 15.1576 25.0912 17.3923ZM15.8695 14.8488C15.8237 14.865 15.8047 14.8812 15.8009 14.8821C14.9015 15.7674 14.1877 16.823 13.701 17.9873C13.2144 19.1517 12.9647 20.4013 12.9666 21.6633C12.9666 23.9313 13.7597 26.0115 15.0801 27.6484C13.9685 25.5787 17.9249 19.7423 19.9117 17.3923C17.6713 15.1567 16.5626 14.8135 16.0935 14.8135C16.0174 14.8109 15.9416 14.8235 15.8705 14.8507L15.8695 14.8488ZM22.5 14.9479C22.5 14.9479 20.1605 13.5789 18.3339 13.5141C17.616 13.4883 17.1775 13.7486 17.1251 13.7829C18.8296 12.6408 20.641 12.127 22.4886 12.127H22.5C24.3543 12.127 26.159 12.6399 27.875 13.7829C27.8216 13.7467 27.3869 13.4874 26.668 13.5141C24.8405 13.5789 22.5 14.9441 22.5 14.9441V14.9479Z" fill="white"/>
</svg>
