<svg width="45" height="46" viewBox="0 0 45 46" fill="none" xmlns="http://www.w3.org/2000/svg">
<rect y="0.0957031" width="45" height="45" rx="22.5" fill="#1C1D1F"/>
<path fill-rule="evenodd" clip-rule="evenodd" d="M22.5 14.5957C23.355 14.5957 24.232 14.6177 25.082 14.6537L26.086 14.7017L27.047 14.7587L27.947 14.8197L28.769 14.8837C29.6612 14.9516 30.5008 15.3321 31.14 15.9583C31.7791 16.5845 32.1768 17.4161 32.263 18.3067L32.303 18.7317L32.378 19.6417C32.448 20.5847 32.5 21.6127 32.5 22.5957C32.5 23.5787 32.448 24.6067 32.378 25.5497L32.303 26.4597L32.263 26.8847C32.1768 27.7755 31.7789 28.6072 31.1396 29.2334C30.5002 29.8596 29.6604 30.24 28.768 30.3077L27.948 30.3707L27.048 30.4327L26.086 30.4897L25.082 30.5377C24.2218 30.575 23.361 30.5943 22.5 30.5957C21.639 30.5943 20.7782 30.575 19.918 30.5377L18.914 30.4897L17.953 30.4327L17.053 30.3707L16.231 30.3077C15.3388 30.2398 14.4992 29.8593 13.86 29.2331C13.2209 28.6069 12.8232 27.7753 12.737 26.8847L12.697 26.4597L12.622 25.5497C12.5458 24.5668 12.5051 23.5815 12.5 22.5957C12.5 21.6127 12.552 20.5847 12.622 19.6417L12.697 18.7317L12.737 18.3067C12.8232 17.4163 13.2207 16.5848 13.8597 15.9586C14.4986 15.3325 15.338 14.9518 16.23 14.8837L17.051 14.8197L17.951 14.7587L18.913 14.7017L19.917 14.6537C20.7775 14.6164 21.6387 14.5971 22.5 14.5957ZM20.5 20.1707V25.0207C20.5 25.4827 21 25.7707 21.4 25.5407L25.6 23.1157C25.6914 23.0631 25.7673 22.9873 25.8201 22.896C25.8729 22.8047 25.9007 22.7012 25.9007 22.5957C25.9007 22.4903 25.8729 22.3867 25.8201 22.2954C25.7673 22.2041 25.6914 22.1283 25.6 22.0757L21.4 19.6517C21.3088 19.599 21.2053 19.5713 21.0999 19.5713C20.9945 19.5713 20.8911 19.5991 20.7998 19.6518C20.7086 19.7045 20.6329 19.7803 20.5802 19.8716C20.5276 19.9628 20.4999 20.0663 20.5 20.1717V20.1707Z" fill="white"/>
</svg>
